# Blender 3.5.1
# www.blender.org
mtllib Grass.mtl
o Grass_0
v -0.185806 0.539595 -0.151934
v -0.167331 0.403143 -0.123842
v -0.161761 0.194644 -0.109778
v -0.168630 0.000065 -0.111093
v -0.143797 0.000065 -0.166013
v -0.138272 0.194644 -0.161724
v -0.152511 0.403143 -0.156617
v 0.290758 0.475819 -0.467688
v 0.228062 0.352357 -0.397127
v 0.175418 0.168538 -0.329229
v 0.150914 0.000689 -0.291460
v 0.201112 0.000689 -0.261347
v 0.222899 0.168538 -0.300747
v 0.258020 0.352357 -0.379157
v -0.075074 0.352357 -0.352536
v -0.065192 0.168538 -0.267190
v -0.063784 0.000689 -0.222190
v -0.122321 0.000689 -0.222420
v -0.120560 0.168538 -0.267407
v -0.110008 0.352357 -0.352673
v -0.092177 0.475819 -0.445364
v -0.388371 0.467870 -0.206224
v -0.341469 0.346471 -0.126133
v -0.293998 0.165723 -0.056250
v -0.266138 0.000678 -0.021847
v -0.222709 0.000678 -0.059622
v -0.252920 0.165723 -0.091981
v -0.315551 0.346471 -0.148676
v -0.228315 0.446892 0.333163
v -0.141748 0.330935 0.352278
v -0.061966 0.158292 0.364368
v -0.019775 0.000648 0.367174
v -0.018060 0.000648 0.312223
v -0.060344 0.158292 0.312392
v -0.140725 0.330935 0.319484
v 0.358222 0.450328 0.182908
v 0.275154 0.333480 0.215773
v 0.201712 0.159509 0.250677
v 0.164898 0.000653 0.272131
v 0.194461 0.000653 0.318986
v 0.229675 0.159509 0.294995
v 0.292796 0.333480 0.243735
v 0.385369 0.463654 -0.197779
v 0.352804 0.343349 -0.111759
v 0.328464 0.164230 -0.031655
v 0.319277 0.000672 0.011242
v 0.375438 0.000672 0.021217
v 0.381585 0.164230 -0.022220
v 0.386320 0.343348 -0.105806
v -0.070757 0.566774 -0.140528
v 0.001534 0.431722 -0.195880
v 0.061019 0.212821 -0.248880
v 0.087943 0.000640 -0.278322
v 0.036298 0.000640 -0.321393
v 0.012170 0.212821 -0.289620
v -0.029286 0.431722 -0.221584
v 0.119267 0.566774 0.247099
v 0.028411 0.431722 0.241183
v -0.051257 0.212821 0.241925
v -0.090906 0.000640 0.246366
v -0.080379 0.000640 0.312785
v -0.041300 0.212821 0.304748
v 0.034693 0.431722 0.280820
v 0.199237 0.499284 0.071574
v 0.222542 0.374316 0.017870
v 0.237371 0.181455 -0.023997
v 0.240738 0.000351 -0.039807
v 0.183997 0.000351 -0.046306
v 0.183702 0.181455 -0.030145
v 0.188680 0.374316 0.013991
v -0.171764 0.430686 0.065937
v -0.204475 0.322887 0.104411
v -0.227220 0.156525 0.135242
v -0.233966 0.000303 0.147444
v -0.188770 0.000303 0.167048
v -0.184470 0.156525 0.153784
v -0.177503 0.322887 0.116109
v 0.165505 0.599652 0.254737
v 0.195752 0.451327 0.218201
v 0.215620 0.220922 0.188478
v 0.218478 0.000254 0.184722
v 0.153400 0.000254 0.167779
v 0.154064 0.220922 0.172453
v 0.156915 0.451327 0.208090
v -0.201930 0.599652 -0.046245
v -0.162264 0.451327 -0.020239
v -0.130521 0.220922 -0.003792
v -0.126470 0.000254 -0.001368
v -0.116852 0.000254 -0.067924
v -0.121423 0.220922 -0.066746
v -0.156524 0.451327 -0.059958
v 0.231863 0.561938 -0.188128
v 0.187889 0.422942 -0.194606
v 0.154419 0.207028 -0.196079
v 0.150020 0.000238 -0.196544
v 0.168073 0.000238 -0.136166
v 0.171495 0.207028 -0.138970
v 0.198663 0.422942 -0.158574
v 0.128908 0.625782 0.095977
v 0.117684 0.467536 0.058634
v 0.116154 0.225734 0.041158
v 0.123352 0.000076 0.044896
v 0.077555 0.000076 0.097704
v 0.072836 0.225734 0.091107
v 0.090353 0.467536 0.090149
v -0.074171 0.550548 0.099705
v -0.105985 0.411327 0.086869
v -0.118825 0.198595 0.078306
v -0.112299 0.000067 0.075420
v -0.101235 0.000067 0.135913
v -0.108360 0.198595 0.135524
v -0.099382 0.411327 0.122970
vn -0.0000 1.0000 -0.0000
vn -0.0076 1.0000 -0.0045
vn -0.0000 1.0000 0.0001
vn -0.0066 1.0000 0.0058
vn 0.0001 1.0000 -0.0000
vn -0.0001 1.0000 -0.0000
vn -0.0003 1.0000 0.0088
vn -0.0000 1.0000 -0.0001
vn -0.0047 1.0000 -0.0075
vn -0.0087 1.0000 -0.0015
vn 0.0064 1.0000 0.0053
vn -0.0013 1.0000 -0.0082
vn 0.0084 1.0000 0.0010
vn -0.0078 1.0000 -0.0034
vn 0.0080 1.0000 0.0021
vn -0.0012 1.0000 0.0082
vn -0.0024 1.0000 -0.0079
vn 0.0055 1.0000 -0.0063
vn -0.0015 1.0000 -0.0082
vn -0.0088 1.0000 -0.0000
vn -0.0035 1.0000 0.0076
vn 0.0001 1.0000 0.0001
vn -0.0001 1.0000 0.0001
vn -0.0001 1.0000 -0.0001
vt 0.500000 1.000000
vt 0.000000 0.833333
vt 0.000000 0.459780
vt 0.000000 0.166667
vt 1.000000 0.166667
vt 1.000000 0.459780
vt 1.000000 0.833333
vt 0.500000 1.000000
vt 0.000000 0.833333
vt 0.000000 0.459780
vt 0.000000 0.166667
vt 1.000000 0.166667
vt 1.000000 0.459780
vt 1.000000 0.833333
vt 1.000000 0.833333
vt 1.000000 0.459780
vt 1.000000 0.166667
vt 0.000000 0.166667
vt 0.000000 0.459780
vt 0.000000 0.833333
vt 0.500000 1.000000
vt 0.500000 1.000000
vt 0.000000 0.833333
vt 0.000000 0.459780
vt 0.000000 0.166667
vt 1.000000 0.166667
vt 1.000000 0.459780
vt 1.000000 0.833333
vt 0.500000 1.000000
vt 0.000000 0.833333
vt 0.000000 0.459780
vt 0.000000 0.166667
vt 1.000000 0.166667
vt 1.000000 0.459780
vt 1.000000 0.833333
vt 0.500000 1.000000
vt 0.000000 0.833333
vt 0.000000 0.459780
vt 0.000000 0.166667
vt 1.000000 0.166667
vt 1.000000 0.459780
vt 1.000000 0.833333
vt 0.500000 1.000000
vt 0.000000 0.833333
vt 0.000000 0.459780
vt 0.000000 0.166667
vt 1.000000 0.166667
vt 1.000000 0.459780
vt 1.000000 0.833333
vt 0.500000 1.000000
vt 0.000000 0.833333
vt 0.000000 0.459780
vt 0.000000 0.166667
vt 1.000000 0.166667
vt 1.000000 0.459780
vt 1.000000 0.833333
vt 0.500000 1.000000
vt 0.000000 0.833333
vt 0.000000 0.459780
vt 0.000000 0.166667
vt 1.000000 0.166667
vt 1.000000 0.459780
vt 1.000000 0.833333
vt 0.500000 1.000000
vt 0.000000 0.833333
vt 0.000000 0.459780
vt 0.000000 0.166667
vt 1.000000 0.166667
vt 1.000000 0.459780
vt 1.000000 0.833333
vt 0.500000 1.000000
vt 0.000000 0.833333
vt 0.000000 0.459780
vt 0.000000 0.166667
vt 1.000000 0.166667
vt 1.000000 0.459780
vt 1.000000 0.833333
vt 0.500000 1.000000
vt 0.000000 0.833333
vt 0.000000 0.459780
vt 0.000000 0.166667
vt 1.000000 0.166667
vt 1.000000 0.459780
vt 1.000000 0.833333
vt 0.500000 1.000000
vt 0.000000 0.833333
vt 0.000000 0.459780
vt 0.000000 0.166667
vt 1.000000 0.166667
vt 1.000000 0.459780
vt 1.000000 0.833333
vt 0.500000 1.000000
vt 0.000000 0.833333
vt 0.000000 0.459780
vt 0.000000 0.166667
vt 1.000000 0.166667
vt 1.000000 0.459780
vt 1.000000 0.833333
vt 0.500000 1.000000
vt 0.000000 0.833333
vt 0.000000 0.459780
vt 0.000000 0.166667
vt 1.000000 0.166667
vt 1.000000 0.459780
vt 1.000000 0.833333
vt 0.500000 1.000000
vt 0.000000 0.833333
vt 0.000000 0.459780
vt 0.000000 0.166667
vt 1.000000 0.166667
vt 1.000000 0.459780
vt 1.000000 0.833333
s 1
f 7/7/1 2/2/1 3/3/1 6/6/1
f 12/12/2 13/13/1 10/10/1 11/11/1
f 14/14/3 9/9/1 10/10/1 13/13/1
f 26/26/4 27/27/1 24/24/5 25/25/1
f 20/20/3 15/15/3 21/21/6
f 15/15/3 20/20/3 19/19/1 16/16/1
f 28/28/5 23/23/3 24/24/5 27/27/1
f 33/33/7 34/34/1 31/31/8 32/32/1
f 35/35/1 30/30/8 31/31/8 34/34/1
f 40/40/9 41/41/1 38/38/1 39/39/8
f 42/42/8 37/37/1 38/38/1 41/41/1
f 47/47/10 48/48/6 45/45/1 46/46/1
f 49/49/6 44/44/1 45/45/1 48/48/6
f 54/54/11 55/55/3 52/52/3 53/53/1
f 56/56/1 51/51/1 52/52/3 55/55/3
f 61/61/12 62/62/1 59/59/1 60/60/8
f 63/63/1 58/58/1 59/59/1 62/62/1
f 68/68/13 69/69/1 66/66/1 67/67/1
f 70/70/1 65/65/6 66/66/1 69/69/1
f 73/73/1 74/74/1 75/75/14 76/76/1
f 77/77/1 72/72/1 73/73/1 76/76/1
f 82/82/15 83/83/6 80/80/1 81/81/1
f 84/84/1 79/79/1 80/80/1 83/83/6
f 89/89/16 90/90/1 87/87/1 88/88/1
f 91/91/1 86/86/1 87/87/1 90/90/1
f 96/96/17 97/97/6 94/94/3 95/95/1
f 98/98/1 93/93/1 94/94/3 97/97/6
f 103/103/18 104/104/1 101/101/1 102/102/1
f 105/105/1 100/100/1 101/101/1 104/104/1
f 110/110/19 111/111/1 108/108/1 109/109/1
f 112/112/1 107/107/1 108/108/1 111/111/1
f 17/17/20 16/16/1 19/19/1 18/18/1
f 3/3/1 4/4/1 5/5/21 6/6/1
f 51/51/1 56/56/1 50/50/22
f 9/9/1 14/14/3 8/8/6
f 44/44/1 49/49/6 43/43/6
f 37/37/1 42/42/8 36/36/6
f 58/58/1 63/63/1 57/57/8
f 30/30/8 35/35/1 29/29/8
f 72/72/1 77/77/1 71/71/5
f 107/107/1 112/112/1 106/106/8
f 86/86/1 91/91/1 85/85/3
f 100/100/1 105/105/1 99/99/23
f 65/65/6 70/70/1 64/64/6
f 93/93/1 98/98/1 92/92/3
f 23/23/3 28/28/5 22/22/5
f 2/2/1 7/7/1 1/1/3
f 79/79/1 84/84/1 78/78/24
